<svg width="188" height="188" viewBox="0 0 188 188" fill="none" xmlns="http://www.w3.org/2000/svg">
<circle cx="94" cy="94" r="92.5" stroke="#00BCD4" stroke-width="3" stroke-dasharray="6 6"/>
<path d="M79.0693 61.2373C80.3162 63.0179 81.2127 65.0474 81.665 67.2334L80.1982 67.5371C80.3962 68.4938 80.5 69.4844 80.5 70.5C80.5 71.5156 80.3962 72.5062 80.1982 73.4629L81.665 73.7656C81.2128 75.9517 80.3161 77.981 79.0693 79.7617L77.8418 78.9023C76.7022 80.53 75.2391 81.9317 73.54 83.0195L74.3477 84.2812C72.5344 85.4422 70.4794 86.2755 68.2705 86.6934L67.9922 85.2207C67.0252 85.4036 66.0249 85.5 65 85.5C63.9751 85.5 62.9748 85.4036 62.0078 85.2207L61.7285 86.6934C59.5197 86.2754 57.4646 85.4423 55.6514 84.2812L56.46 83.0195C54.7609 81.9317 53.2978 80.53 52.1582 78.9023L50.9297 79.7617C49.683 77.981 48.7862 75.9516 48.334 73.7656L49.8018 73.4629C49.6038 72.5062 49.5 71.5156 49.5 70.5C49.5 69.4844 49.6038 68.4938 49.8018 67.5371L48.334 67.2334C48.7831 65.0628 49.6702 63.046 50.9033 61.2744L50.9297 61.2373L52.1582 62.0977C53.2978 60.47 54.7609 59.0683 56.46 57.9805L55.6514 56.7178C57.4645 55.5568 59.5199 54.7236 61.7285 54.3057L62.0078 55.7793C62.9748 55.5964 63.9751 55.5 65 55.5C66.0249 55.5 67.0252 55.5964 67.9922 55.7793L68.2705 54.3057C70.4792 54.7234 72.5344 55.5569 74.3477 56.7178L73.54 57.9805C75.2391 59.0683 76.7022 60.47 77.8418 62.0977L79.0693 61.2373Z" stroke="#00BCD4" stroke-width="3" stroke-dasharray="6 6"/>
<path d="M137.069 61.2373C138.316 63.0179 139.213 65.0474 139.665 67.2334L138.198 67.5371C138.396 68.4938 138.5 69.4844 138.5 70.5C138.5 71.5156 138.396 72.5062 138.198 73.4629L139.665 73.7656C139.213 75.9517 138.316 77.981 137.069 79.7617L135.842 78.9023C134.702 80.53 133.239 81.9317 131.54 83.0195L132.348 84.2812C130.534 85.4422 128.479 86.2755 126.271 86.6934L125.992 85.2207C125.025 85.4036 124.025 85.5 123 85.5C121.975 85.5 120.975 85.4036 120.008 85.2207L119.729 86.6934C117.52 86.2754 115.465 85.4423 113.651 84.2812L114.46 83.0195C112.761 81.9317 111.298 80.53 110.158 78.9023L108.93 79.7617C107.683 77.981 106.786 75.9516 106.334 73.7656L107.802 73.4629C107.604 72.5062 107.5 71.5156 107.5 70.5C107.5 69.4844 107.604 68.4938 107.802 67.5371L106.334 67.2334C106.783 65.0628 107.67 63.046 108.903 61.2744L108.93 61.2373L110.158 62.0977C111.298 60.47 112.761 59.0683 114.46 57.9805L113.651 56.7178C115.465 55.5568 117.52 54.7236 119.729 54.3057L120.008 55.7793C120.975 55.5964 121.975 55.5 123 55.5C124.025 55.5 125.025 55.5964 125.992 55.7793L126.271 54.3057C128.479 54.7234 130.534 55.5569 132.348 56.7178L131.54 57.9805C133.239 59.0683 134.702 60.47 135.842 62.0977L137.069 61.2373Z" stroke="#00BCD4" stroke-width="3" stroke-dasharray="6 6"/>
<path d="M95.3936 102.094L99.1826 108.281H99.1836L97.9043 109.064L101.693 115.252L102.972 114.469V114.468L106.761 120.655V120.656L105.481 121.439L106.13 122.498V123.75H101.078V122.25H96.0264V123.75H90.9736V122.25H85.9219V123.75H80.8701V122.498L81.5186 121.439L80.2393 120.656L80.2383 120.655L84.0273 114.468L84.0283 114.469L85.3066 115.252L89.0957 109.064L87.8164 108.281L91.6055 102.094L92.8848 102.877L93.5 101.872L94.1152 102.877L95.3936 102.094Z" stroke="#00BCD4" stroke-width="3" stroke-dasharray="6 6"/>
<path d="M69 145C89.5289 155.434 100.446 156.12 118.5 145" stroke="#00BCD4" stroke-width="3" stroke-dasharray="6 6"/>
</svg>
