<svg width="217" height="188" viewBox="0 0 217 188" fill="none" xmlns="http://www.w3.org/2000/svg">
<circle cx="123" cy="94" r="92.5" stroke="#00BCD4" stroke-width="3" stroke-dasharray="6 6"/>
<circle cx="88" cy="71" r="15.5" stroke="#00BCD4" stroke-width="3" stroke-dasharray="6 6"/>
<path d="M31.4581 96.1055L31.7735 103.354L31.7743 103.355L30.2757 103.42L30.5912 110.668L32.0889 110.603L32.0894 110.602L32.4048 117.851L32.4043 117.851L30.9057 117.916L30.9598 119.157L30.3531 120.252L25.9343 117.803L26.6613 116.491L22.2425 114.043L21.5155 115.355L17.0959 112.906L17.8229 111.594L13.4041 109.146L12.6771 110.458L8.25837 108.009L8.86515 106.914L9.9454 106.302L9.20599 104.997L9.20561 104.996L15.5188 101.42L15.5191 101.422L16.2577 102.726L22.5709 99.1504L21.8315 97.8453L28.1446 94.2695L28.884 95.5746L29.9092 94.9939L29.9603 96.171L31.4581 96.1055Z" stroke="#00BCD4" stroke-width="3" stroke-dasharray="6 6"/>
<path d="M47 144.5C73.8 146.5 89.8333 137.667 94.5 133" stroke="#00BCD4" stroke-width="3" stroke-dasharray="6 6"/>
</svg>
