<svg width="218" height="188" viewBox="0 0 218 188" fill="none" xmlns="http://www.w3.org/2000/svg">
<circle cx="94" cy="94" r="92.5" stroke="#00BCD4" stroke-width="3" stroke-dasharray="6 6"/>
<path d="M149.069 62.2373C150.316 64.0179 151.213 66.0474 151.665 68.2334L150.198 68.5371C150.396 69.4938 150.5 70.4844 150.5 71.5C150.5 72.5156 150.396 73.5062 150.198 74.4629L151.665 74.7656C151.213 76.9517 150.316 78.981 149.069 80.7617L147.842 79.9023C146.702 81.53 145.239 82.9317 143.54 84.0195L144.348 85.2812C142.534 86.4422 140.479 87.2755 138.271 87.6934L137.992 86.2207C137.025 86.4036 136.025 86.5 135 86.5C133.975 86.5 132.975 86.4036 132.008 86.2207L131.729 87.6934C129.52 87.2754 127.465 86.4423 125.651 85.2812L126.46 84.0195C124.761 82.9317 123.298 81.53 122.158 79.9023L120.93 80.7617C119.683 78.981 118.786 76.9516 118.334 74.7656L119.802 74.4629C119.604 73.5062 119.5 72.5156 119.5 71.5C119.5 70.4844 119.604 69.4938 119.802 68.5371L118.334 68.2334C118.783 66.0628 119.67 64.046 120.903 62.2744L120.93 62.2373L122.158 63.0977C123.298 61.47 124.761 60.0683 126.46 58.9805L125.651 57.7178C127.465 56.5568 129.52 55.7236 131.729 55.3057L132.008 56.7793C132.975 56.5964 133.975 56.5 135 56.5C136.025 56.5 137.025 56.5964 137.992 56.7793L138.271 55.3057C140.479 55.7234 142.534 56.5569 144.348 57.7178L143.54 58.9805C145.239 60.0683 146.702 61.47 147.842 63.0977L149.069 62.2373Z" stroke="#00BCD4" stroke-width="3" stroke-dasharray="6 6"/>
<path d="M190.265 97.2733L196.396 101.152L196.397 101.152L195.595 102.419L201.726 106.299L202.528 105.031L202.527 105.031L208.659 108.91L208.659 108.911L207.857 110.178L208.906 110.842L209.459 111.965L204.926 114.195L204.264 112.849L199.731 115.08L200.393 116.425L195.86 118.656L195.197 117.31L190.665 119.54L191.327 120.886L186.794 123.117L186.241 121.993L186.356 120.757L184.862 120.619L184.861 120.619L185.529 113.394L185.53 113.395L187.023 113.533L187.691 106.308L186.198 106.17L186.866 98.9456L188.359 99.0836L188.468 97.9103L189.463 98.5404L190.265 97.2733Z" stroke="#00BCD4" stroke-width="3" stroke-dasharray="6 6"/>
<path d="M165.5 152.066C128.965 153.392 121.928 147.808 108.5 138.259" stroke="#00BCD4" stroke-width="3" stroke-dasharray="6 6"/>
</svg>
