<svg width="240" height="180" viewBox="0 0 240 180" fill="none" xmlns="http://www.w3.org/2000/svg">
  <!-- Red oval on left -->
  <ellipse cx="23" cy="73" rx="12" ry="18" fill="#E63946" transform="rotate(-25 23 73)"/>

  <!-- Yellow/lime oval -->
  <ellipse cx="43" cy="53" rx="10" ry="16" fill="#B7D334" transform="rotate(-20 43 53)"/>

  <!-- Light blue oval -->
  <ellipse cx="57" cy="38" rx="8" ry="14" fill="#52B8E8" transform="rotate(-15 57 38)"/>

  <!-- Orange oval -->
  <ellipse cx="72" cy="48" rx="9" ry="15" fill="#F4A261" transform="rotate(15 72 48)"/>

  <!-- "o" - blue circle -->
  <circle cx="78" cy="110" r="30" fill="none" stroke="#2196F3" stroke-width="18"/>

  <!-- "l" - first vertical blue line -->
  <rect x="112" y="25" width="16" height="135" rx="8" fill="#2196F3" transform="rotate(8 120 90)"/>

  <!-- "k" - vertical line -->
  <rect x="140" y="50" width="16" height="110" rx="8" fill="#2196F3" transform="rotate(-5 148 105)"/>

  <!-- "k" - top diagonal -->
  <rect x="155" y="45" width="16" height="55" rx="8" fill="#2196F3" transform="rotate(35 163 72)"/>

  <!-- "k" - bottom diagonal -->
  <rect x="155" y="95" width="16" height="55" rx="8" fill="#2196F3" transform="rotate(-30 163 122)"/>

  <!-- "y" - left stroke -->
  <rect x="195" y="55" width="16" height="75" rx="8" fill="#2196F3" transform="rotate(12 203 92)"/>

  <!-- "y" - right stroke going down -->
  <rect x="205" y="90" width="16" height="85" rx="8" fill="#2196F3" transform="rotate(-25 213 132)"/>
</svg>
